<mxfile host="app.diagrams.net" agent="Mozilla/5.0 (Windows NT 10.0; Win64; x64) AppleWebKit/537.36 (KHTML, like Gecko) Chrome/131.0.0.0 Safari/537.36 Edg/131.0.0.0" version="25.0.3">
  <diagram name="Page-1" id="16e2658f-23c8-b752-8be9-c03fbebb8bbe">
    <mxGraphModel dx="771" dy="739" grid="1" gridSize="10" guides="1" tooltips="1" connect="1" arrows="1" fold="1" page="1" pageScale="1" pageWidth="1100" pageHeight="850" background="none" math="0" shadow="0">
      <root>
        <mxCell id="0" />
        <mxCell id="1" parent="0" />
        <mxCell id="s9KkecqxKt4KkMQb729m-92" value="" style="group" vertex="1" connectable="0" parent="1">
          <mxGeometry x="290" y="10" width="260" height="420" as="geometry" />
        </mxCell>
        <mxCell id="s9KkecqxKt4KkMQb729m-42" value="" style="group" vertex="1" connectable="0" parent="s9KkecqxKt4KkMQb729m-92">
          <mxGeometry y="30" width="260" height="390" as="geometry" />
        </mxCell>
        <mxCell id="s9KkecqxKt4KkMQb729m-1" value="" style="rounded=0;whiteSpace=wrap;html=1;" vertex="1" parent="s9KkecqxKt4KkMQb729m-42">
          <mxGeometry x="30" width="200" height="390" as="geometry" />
        </mxCell>
        <mxCell id="s9KkecqxKt4KkMQb729m-3" value="" style="line;strokeWidth=2;html=1;" vertex="1" parent="s9KkecqxKt4KkMQb729m-42">
          <mxGeometry y="370" width="60" height="10" as="geometry" />
        </mxCell>
        <mxCell id="s9KkecqxKt4KkMQb729m-4" value="" style="line;strokeWidth=2;html=1;" vertex="1" parent="s9KkecqxKt4KkMQb729m-42">
          <mxGeometry y="330" width="60" height="10" as="geometry" />
        </mxCell>
        <mxCell id="s9KkecqxKt4KkMQb729m-5" value="" style="line;strokeWidth=2;html=1;" vertex="1" parent="s9KkecqxKt4KkMQb729m-42">
          <mxGeometry y="350" width="60" height="10" as="geometry" />
        </mxCell>
        <mxCell id="s9KkecqxKt4KkMQb729m-6" value="" style="line;strokeWidth=2;html=1;" vertex="1" parent="s9KkecqxKt4KkMQb729m-42">
          <mxGeometry y="310" width="60" height="10" as="geometry" />
        </mxCell>
        <mxCell id="s9KkecqxKt4KkMQb729m-7" value="" style="line;strokeWidth=2;html=1;" vertex="1" parent="s9KkecqxKt4KkMQb729m-42">
          <mxGeometry y="290" width="60" height="10" as="geometry" />
        </mxCell>
        <mxCell id="s9KkecqxKt4KkMQb729m-8" value="" style="line;strokeWidth=2;html=1;" vertex="1" parent="s9KkecqxKt4KkMQb729m-42">
          <mxGeometry y="270" width="60" height="10" as="geometry" />
        </mxCell>
        <mxCell id="s9KkecqxKt4KkMQb729m-10" value="" style="line;strokeWidth=2;html=1;" vertex="1" parent="s9KkecqxKt4KkMQb729m-42">
          <mxGeometry y="230" width="60" height="10" as="geometry" />
        </mxCell>
        <mxCell id="s9KkecqxKt4KkMQb729m-11" value="" style="line;strokeWidth=2;html=1;" vertex="1" parent="s9KkecqxKt4KkMQb729m-42">
          <mxGeometry y="210" width="60" height="10" as="geometry" />
        </mxCell>
        <mxCell id="s9KkecqxKt4KkMQb729m-13" value="" style="line;strokeWidth=2;html=1;" vertex="1" parent="s9KkecqxKt4KkMQb729m-42">
          <mxGeometry y="190" width="60" height="10" as="geometry" />
        </mxCell>
        <mxCell id="s9KkecqxKt4KkMQb729m-14" value="" style="line;strokeWidth=2;html=1;" vertex="1" parent="s9KkecqxKt4KkMQb729m-42">
          <mxGeometry y="170" width="60" height="10" as="geometry" />
        </mxCell>
        <mxCell id="s9KkecqxKt4KkMQb729m-15" value="" style="line;strokeWidth=2;html=1;" vertex="1" parent="s9KkecqxKt4KkMQb729m-42">
          <mxGeometry y="150" width="60" height="10" as="geometry" />
        </mxCell>
        <mxCell id="s9KkecqxKt4KkMQb729m-16" value="" style="line;strokeWidth=2;html=1;" vertex="1" parent="s9KkecqxKt4KkMQb729m-42">
          <mxGeometry y="130" width="60" height="10" as="geometry" />
        </mxCell>
        <mxCell id="s9KkecqxKt4KkMQb729m-17" value="" style="line;strokeWidth=2;html=1;" vertex="1" parent="s9KkecqxKt4KkMQb729m-42">
          <mxGeometry y="110" width="60" height="10" as="geometry" />
        </mxCell>
        <mxCell id="s9KkecqxKt4KkMQb729m-20" value="" style="line;strokeWidth=2;html=1;" vertex="1" parent="s9KkecqxKt4KkMQb729m-42">
          <mxGeometry y="50" width="60" height="10" as="geometry" />
        </mxCell>
        <mxCell id="s9KkecqxKt4KkMQb729m-21" value="" style="line;strokeWidth=2;html=1;" vertex="1" parent="s9KkecqxKt4KkMQb729m-42">
          <mxGeometry y="30" width="60" height="10" as="geometry" />
        </mxCell>
        <mxCell id="s9KkecqxKt4KkMQb729m-22" value="" style="line;strokeWidth=2;html=1;" vertex="1" parent="s9KkecqxKt4KkMQb729m-42">
          <mxGeometry y="10" width="60" height="10" as="geometry" />
        </mxCell>
        <mxCell id="s9KkecqxKt4KkMQb729m-23" value="" style="line;strokeWidth=2;html=1;" vertex="1" parent="s9KkecqxKt4KkMQb729m-42">
          <mxGeometry x="200" y="370" width="60" height="10" as="geometry" />
        </mxCell>
        <mxCell id="s9KkecqxKt4KkMQb729m-24" value="" style="line;strokeWidth=2;html=1;" vertex="1" parent="s9KkecqxKt4KkMQb729m-42">
          <mxGeometry x="200" y="330" width="60" height="10" as="geometry" />
        </mxCell>
        <mxCell id="s9KkecqxKt4KkMQb729m-25" value="" style="line;strokeWidth=2;html=1;" vertex="1" parent="s9KkecqxKt4KkMQb729m-42">
          <mxGeometry x="200" y="350" width="60" height="10" as="geometry" />
        </mxCell>
        <mxCell id="s9KkecqxKt4KkMQb729m-26" value="" style="line;strokeWidth=2;html=1;" vertex="1" parent="s9KkecqxKt4KkMQb729m-42">
          <mxGeometry x="200" y="310" width="60" height="10" as="geometry" />
        </mxCell>
        <mxCell id="s9KkecqxKt4KkMQb729m-27" value="" style="line;strokeWidth=2;html=1;" vertex="1" parent="s9KkecqxKt4KkMQb729m-42">
          <mxGeometry x="200" y="290" width="60" height="10" as="geometry" />
        </mxCell>
        <mxCell id="s9KkecqxKt4KkMQb729m-28" value="" style="line;strokeWidth=2;html=1;" vertex="1" parent="s9KkecqxKt4KkMQb729m-42">
          <mxGeometry x="200" y="270" width="60" height="10" as="geometry" />
        </mxCell>
        <mxCell id="s9KkecqxKt4KkMQb729m-29" value="" style="line;strokeWidth=2;html=1;" vertex="1" parent="s9KkecqxKt4KkMQb729m-42">
          <mxGeometry x="200" y="250" width="60" height="10" as="geometry" />
        </mxCell>
        <mxCell id="s9KkecqxKt4KkMQb729m-30" value="" style="line;strokeWidth=2;html=1;" vertex="1" parent="s9KkecqxKt4KkMQb729m-42">
          <mxGeometry x="200" y="230" width="60" height="10" as="geometry" />
        </mxCell>
        <mxCell id="s9KkecqxKt4KkMQb729m-32" value="" style="line;strokeWidth=2;html=1;" vertex="1" parent="s9KkecqxKt4KkMQb729m-42">
          <mxGeometry x="200" y="190" width="60" height="10" as="geometry" />
        </mxCell>
        <mxCell id="s9KkecqxKt4KkMQb729m-33" value="" style="line;strokeWidth=2;html=1;" vertex="1" parent="s9KkecqxKt4KkMQb729m-42">
          <mxGeometry x="200" y="170" width="60" height="10" as="geometry" />
        </mxCell>
        <mxCell id="s9KkecqxKt4KkMQb729m-34" value="" style="line;strokeWidth=2;html=1;" vertex="1" parent="s9KkecqxKt4KkMQb729m-42">
          <mxGeometry x="200" y="150" width="60" height="10" as="geometry" />
        </mxCell>
        <mxCell id="s9KkecqxKt4KkMQb729m-35" value="" style="line;strokeWidth=2;html=1;" vertex="1" parent="s9KkecqxKt4KkMQb729m-42">
          <mxGeometry x="200" y="130" width="60" height="10" as="geometry" />
        </mxCell>
        <mxCell id="s9KkecqxKt4KkMQb729m-36" value="" style="line;strokeWidth=2;html=1;" vertex="1" parent="s9KkecqxKt4KkMQb729m-42">
          <mxGeometry x="200" y="110" width="60" height="10" as="geometry" />
        </mxCell>
        <mxCell id="s9KkecqxKt4KkMQb729m-37" value="" style="line;strokeWidth=2;html=1;" vertex="1" parent="s9KkecqxKt4KkMQb729m-42">
          <mxGeometry x="200" y="90" width="60" height="10" as="geometry" />
        </mxCell>
        <mxCell id="s9KkecqxKt4KkMQb729m-38" value="" style="line;strokeWidth=2;html=1;" vertex="1" parent="s9KkecqxKt4KkMQb729m-42">
          <mxGeometry x="200" y="70" width="60" height="10" as="geometry" />
        </mxCell>
        <mxCell id="s9KkecqxKt4KkMQb729m-39" value="" style="line;strokeWidth=2;html=1;" vertex="1" parent="s9KkecqxKt4KkMQb729m-42">
          <mxGeometry x="200" y="50" width="60" height="10" as="geometry" />
        </mxCell>
        <mxCell id="s9KkecqxKt4KkMQb729m-40" value="" style="line;strokeWidth=2;html=1;" vertex="1" parent="s9KkecqxKt4KkMQb729m-42">
          <mxGeometry x="200" y="30" width="60" height="10" as="geometry" />
        </mxCell>
        <mxCell id="s9KkecqxKt4KkMQb729m-41" value="" style="line;strokeWidth=2;html=1;" vertex="1" parent="s9KkecqxKt4KkMQb729m-42">
          <mxGeometry x="200" y="10" width="60" height="10" as="geometry" />
        </mxCell>
        <mxCell id="s9KkecqxKt4KkMQb729m-43" value="&lt;font style=&quot;font-size: 14px; font-weight: normal;&quot;&gt;A5&lt;/font&gt;" style="text;strokeColor=none;fillColor=none;html=1;fontSize=24;fontStyle=1;verticalAlign=middle;align=center;" vertex="1" parent="s9KkecqxKt4KkMQb729m-42">
          <mxGeometry x="60" y="365" width="20" height="15" as="geometry" />
        </mxCell>
        <mxCell id="s9KkecqxKt4KkMQb729m-52" value="&lt;font style=&quot;font-size: 14px; font-weight: normal;&quot;&gt;A4&lt;/font&gt;" style="text;strokeColor=none;fillColor=none;html=1;fontSize=24;fontStyle=1;verticalAlign=middle;align=center;" vertex="1" parent="s9KkecqxKt4KkMQb729m-42">
          <mxGeometry x="60" y="345" width="20" height="15" as="geometry" />
        </mxCell>
        <mxCell id="s9KkecqxKt4KkMQb729m-54" value="&lt;font style=&quot;font-size: 14px; font-weight: normal;&quot;&gt;A3&lt;/font&gt;" style="text;strokeColor=none;fillColor=none;html=1;fontSize=24;fontStyle=1;verticalAlign=middle;align=center;" vertex="1" parent="s9KkecqxKt4KkMQb729m-42">
          <mxGeometry x="60" y="325" width="20" height="15" as="geometry" />
        </mxCell>
        <mxCell id="s9KkecqxKt4KkMQb729m-55" value="&lt;span style=&quot;font-size: 14px; font-weight: 400;&quot;&gt;A2&lt;/span&gt;" style="text;strokeColor=none;fillColor=none;html=1;fontSize=24;fontStyle=1;verticalAlign=middle;align=center;" vertex="1" parent="s9KkecqxKt4KkMQb729m-42">
          <mxGeometry x="60" y="305" width="20" height="15" as="geometry" />
        </mxCell>
        <mxCell id="s9KkecqxKt4KkMQb729m-56" value="&lt;font style=&quot;font-size: 14px; font-weight: normal;&quot;&gt;A1&lt;/font&gt;" style="text;strokeColor=none;fillColor=none;html=1;fontSize=24;fontStyle=1;verticalAlign=middle;align=center;" vertex="1" parent="s9KkecqxKt4KkMQb729m-42">
          <mxGeometry x="60" y="285" width="20" height="15" as="geometry" />
        </mxCell>
        <mxCell id="s9KkecqxKt4KkMQb729m-57" value="&lt;font style=&quot;font-size: 14px; font-weight: normal;&quot;&gt;A0&lt;/font&gt;" style="text;strokeColor=none;fillColor=none;html=1;fontSize=24;fontStyle=1;verticalAlign=middle;align=center;" vertex="1" parent="s9KkecqxKt4KkMQb729m-42">
          <mxGeometry x="60" y="265" width="20" height="15" as="geometry" />
        </mxCell>
        <mxCell id="s9KkecqxKt4KkMQb729m-58" value="&lt;font style=&quot;font-size: 14px; font-weight: normal;&quot;&gt;VIN&lt;/font&gt;" style="text;strokeColor=none;fillColor=none;html=1;fontSize=24;fontStyle=1;verticalAlign=middle;align=left;" vertex="1" parent="s9KkecqxKt4KkMQb729m-42">
          <mxGeometry x="60" y="225" width="30" height="15" as="geometry" />
        </mxCell>
        <mxCell id="s9KkecqxKt4KkMQb729m-59" value="&lt;font style=&quot;font-size: 14px; font-weight: normal;&quot;&gt;GND&lt;/font&gt;" style="text;strokeColor=none;fillColor=none;html=1;fontSize=24;fontStyle=1;verticalAlign=middle;align=left;" vertex="1" parent="s9KkecqxKt4KkMQb729m-42">
          <mxGeometry x="60" y="205" width="30" height="15" as="geometry" />
        </mxCell>
        <mxCell id="s9KkecqxKt4KkMQb729m-61" value="&lt;span style=&quot;font-size: 14px; font-weight: 400;&quot;&gt;5V&lt;/span&gt;" style="text;strokeColor=none;fillColor=none;html=1;fontSize=24;fontStyle=1;verticalAlign=middle;align=center;" vertex="1" parent="s9KkecqxKt4KkMQb729m-42">
          <mxGeometry x="60" y="165" width="20" height="15" as="geometry" />
        </mxCell>
        <mxCell id="s9KkecqxKt4KkMQb729m-62" value="&lt;span style=&quot;font-size: 14px; font-weight: 400;&quot;&gt;3.3V&lt;/span&gt;" style="text;strokeColor=none;fillColor=none;html=1;fontSize=24;fontStyle=1;verticalAlign=middle;align=center;" vertex="1" parent="s9KkecqxKt4KkMQb729m-42">
          <mxGeometry x="60" y="145" width="30" height="15" as="geometry" />
        </mxCell>
        <mxCell id="s9KkecqxKt4KkMQb729m-63" value="&lt;span style=&quot;font-size: 14px; font-weight: 400;&quot;&gt;Reset&lt;/span&gt;" style="text;strokeColor=none;fillColor=none;html=1;fontSize=24;fontStyle=1;verticalAlign=middle;align=left;" vertex="1" parent="s9KkecqxKt4KkMQb729m-42">
          <mxGeometry x="60" y="125" width="40" height="15" as="geometry" />
        </mxCell>
        <mxCell id="s9KkecqxKt4KkMQb729m-64" value="&lt;font style=&quot;font-size: 14px; font-weight: normal;&quot;&gt;IOREF&lt;/font&gt;" style="text;strokeColor=none;fillColor=none;html=1;fontSize=24;fontStyle=1;verticalAlign=middle;align=left;" vertex="1" parent="s9KkecqxKt4KkMQb729m-42">
          <mxGeometry x="60" y="105" width="50" height="15" as="geometry" />
        </mxCell>
        <mxCell id="s9KkecqxKt4KkMQb729m-67" value="&lt;font style=&quot;font-size: 14px; font-weight: normal;&quot;&gt;VRTC&lt;/font&gt;" style="text;strokeColor=none;fillColor=none;html=1;fontSize=24;fontStyle=1;verticalAlign=middle;align=center;" vertex="1" parent="s9KkecqxKt4KkMQb729m-42">
          <mxGeometry x="60" y="45" width="40" height="15" as="geometry" />
        </mxCell>
        <mxCell id="s9KkecqxKt4KkMQb729m-70" value="&lt;font style=&quot;font-size: 14px; font-weight: normal;&quot;&gt;GND&lt;/font&gt;" style="text;strokeColor=none;fillColor=none;html=1;fontSize=24;fontStyle=1;verticalAlign=middle;align=left;" vertex="1" parent="s9KkecqxKt4KkMQb729m-42">
          <mxGeometry x="60" y="25" width="40" height="15" as="geometry" />
        </mxCell>
        <mxCell id="s9KkecqxKt4KkMQb729m-71" value="&lt;font style=&quot;font-size: 14px; font-weight: normal;&quot;&gt;OFF&lt;/font&gt;" style="text;strokeColor=none;fillColor=none;html=1;fontSize=24;fontStyle=1;verticalAlign=middle;align=center;" vertex="1" parent="s9KkecqxKt4KkMQb729m-42">
          <mxGeometry x="60" y="5" width="20" height="15" as="geometry" />
        </mxCell>
        <mxCell id="s9KkecqxKt4KkMQb729m-72" value="&lt;font style=&quot;font-size: 14px; font-weight: normal;&quot;&gt;0&lt;/font&gt;" style="text;strokeColor=none;fillColor=none;html=1;fontSize=24;fontStyle=1;verticalAlign=middle;align=center;" vertex="1" parent="s9KkecqxKt4KkMQb729m-42">
          <mxGeometry x="180" y="365" width="20" height="15" as="geometry" />
        </mxCell>
        <mxCell id="s9KkecqxKt4KkMQb729m-73" value="&lt;font style=&quot;font-size: 14px; font-weight: normal;&quot;&gt;1&lt;/font&gt;" style="text;strokeColor=none;fillColor=none;html=1;fontSize=24;fontStyle=1;verticalAlign=middle;align=center;" vertex="1" parent="s9KkecqxKt4KkMQb729m-42">
          <mxGeometry x="180" y="345" width="20" height="15" as="geometry" />
        </mxCell>
        <mxCell id="s9KkecqxKt4KkMQb729m-74" value="&lt;font style=&quot;font-size: 14px; font-weight: normal;&quot;&gt;2&lt;/font&gt;" style="text;strokeColor=none;fillColor=none;html=1;fontSize=24;fontStyle=1;verticalAlign=middle;align=center;" vertex="1" parent="s9KkecqxKt4KkMQb729m-42">
          <mxGeometry x="180" y="325" width="20" height="15" as="geometry" />
        </mxCell>
        <mxCell id="s9KkecqxKt4KkMQb729m-75" value="&lt;font style=&quot;font-size: 14px; font-weight: normal;&quot;&gt;~3&lt;/font&gt;" style="text;strokeColor=none;fillColor=none;html=1;fontSize=24;fontStyle=1;verticalAlign=middle;align=center;" vertex="1" parent="s9KkecqxKt4KkMQb729m-42">
          <mxGeometry x="170" y="305" width="30" height="15" as="geometry" />
        </mxCell>
        <mxCell id="s9KkecqxKt4KkMQb729m-76" value="&lt;font style=&quot;font-size: 14px; font-weight: normal;&quot;&gt;4&lt;/font&gt;" style="text;strokeColor=none;fillColor=none;html=1;fontSize=24;fontStyle=1;verticalAlign=middle;align=center;" vertex="1" parent="s9KkecqxKt4KkMQb729m-42">
          <mxGeometry x="180" y="285" width="20" height="15" as="geometry" />
        </mxCell>
        <mxCell id="s9KkecqxKt4KkMQb729m-77" value="&lt;font style=&quot;font-size: 14px; font-weight: normal;&quot;&gt;~5&lt;/font&gt;" style="text;strokeColor=none;fillColor=none;html=1;fontSize=24;fontStyle=1;verticalAlign=middle;align=center;" vertex="1" parent="s9KkecqxKt4KkMQb729m-42">
          <mxGeometry x="170" y="265" width="30" height="15" as="geometry" />
        </mxCell>
        <mxCell id="s9KkecqxKt4KkMQb729m-78" value="&lt;span style=&quot;font-size: 14px; font-weight: 400;&quot;&gt;~6&lt;/span&gt;" style="text;strokeColor=none;fillColor=none;html=1;fontSize=24;fontStyle=1;verticalAlign=middle;align=center;" vertex="1" parent="s9KkecqxKt4KkMQb729m-42">
          <mxGeometry x="170" y="245" width="30" height="15" as="geometry" />
        </mxCell>
        <mxCell id="s9KkecqxKt4KkMQb729m-79" value="&lt;font style=&quot;font-size: 14px; font-weight: normal;&quot;&gt;7&lt;/font&gt;" style="text;strokeColor=none;fillColor=none;html=1;fontSize=24;fontStyle=1;verticalAlign=middle;align=center;" vertex="1" parent="s9KkecqxKt4KkMQb729m-42">
          <mxGeometry x="180" y="225" width="20" height="15" as="geometry" />
        </mxCell>
        <mxCell id="s9KkecqxKt4KkMQb729m-80" value="&lt;font style=&quot;font-size: 14px; font-weight: normal;&quot;&gt;8&lt;/font&gt;" style="text;strokeColor=none;fillColor=none;html=1;fontSize=24;fontStyle=1;verticalAlign=middle;align=center;" vertex="1" parent="s9KkecqxKt4KkMQb729m-42">
          <mxGeometry x="180" y="185" width="20" height="15" as="geometry" />
        </mxCell>
        <mxCell id="s9KkecqxKt4KkMQb729m-81" value="&lt;font style=&quot;font-size: 14px; font-weight: normal;&quot;&gt;~9&lt;/font&gt;" style="text;strokeColor=none;fillColor=none;html=1;fontSize=24;fontStyle=1;verticalAlign=middle;align=center;" vertex="1" parent="s9KkecqxKt4KkMQb729m-42">
          <mxGeometry x="170" y="165" width="30" height="15" as="geometry" />
        </mxCell>
        <mxCell id="s9KkecqxKt4KkMQb729m-82" value="&lt;font style=&quot;font-size: 14px; font-weight: normal;&quot;&gt;~10&lt;/font&gt;" style="text;strokeColor=none;fillColor=none;html=1;fontSize=24;fontStyle=1;verticalAlign=middle;align=center;" vertex="1" parent="s9KkecqxKt4KkMQb729m-42">
          <mxGeometry x="170" y="145" width="30" height="15" as="geometry" />
        </mxCell>
        <mxCell id="s9KkecqxKt4KkMQb729m-83" value="&lt;span style=&quot;font-size: 14px; font-weight: 400;&quot;&gt;~11&lt;/span&gt;" style="text;strokeColor=none;fillColor=none;html=1;fontSize=24;fontStyle=1;verticalAlign=middle;align=center;" vertex="1" parent="s9KkecqxKt4KkMQb729m-42">
          <mxGeometry x="170" y="125" width="30" height="15" as="geometry" />
        </mxCell>
        <mxCell id="s9KkecqxKt4KkMQb729m-84" value="&lt;font style=&quot;font-size: 14px; font-weight: normal;&quot;&gt;12&lt;/font&gt;" style="text;strokeColor=none;fillColor=none;html=1;fontSize=24;fontStyle=1;verticalAlign=middle;align=center;" vertex="1" parent="s9KkecqxKt4KkMQb729m-42">
          <mxGeometry x="180" y="105" width="20" height="15" as="geometry" />
        </mxCell>
        <mxCell id="s9KkecqxKt4KkMQb729m-85" value="&lt;font style=&quot;font-size: 14px; font-weight: normal;&quot;&gt;13&lt;/font&gt;" style="text;strokeColor=none;fillColor=none;html=1;fontSize=24;fontStyle=1;verticalAlign=middle;align=center;" vertex="1" parent="s9KkecqxKt4KkMQb729m-42">
          <mxGeometry x="180" y="85" width="20" height="15" as="geometry" />
        </mxCell>
        <mxCell id="s9KkecqxKt4KkMQb729m-86" value="&lt;font style=&quot;font-size: 14px; font-weight: normal;&quot;&gt;GND&lt;/font&gt;" style="text;strokeColor=none;fillColor=none;html=1;fontSize=24;fontStyle=1;verticalAlign=middle;align=right;" vertex="1" parent="s9KkecqxKt4KkMQb729m-42">
          <mxGeometry x="160" y="65" width="40" height="15" as="geometry" />
        </mxCell>
        <mxCell id="s9KkecqxKt4KkMQb729m-87" value="&lt;font style=&quot;font-size: 14px; font-weight: normal;&quot;&gt;AREF&lt;/font&gt;" style="text;strokeColor=none;fillColor=none;html=1;fontSize=24;fontStyle=1;verticalAlign=middle;align=center;" vertex="1" parent="s9KkecqxKt4KkMQb729m-42">
          <mxGeometry x="160" y="45" width="40" height="15" as="geometry" />
        </mxCell>
        <mxCell id="s9KkecqxKt4KkMQb729m-88" value="&lt;font style=&quot;font-size: 14px; font-weight: normal;&quot;&gt;SDA&lt;/font&gt;" style="text;strokeColor=none;fillColor=none;html=1;fontSize=24;fontStyle=1;verticalAlign=middle;align=right;" vertex="1" parent="s9KkecqxKt4KkMQb729m-42">
          <mxGeometry x="160" y="25" width="40" height="15" as="geometry" />
        </mxCell>
        <mxCell id="s9KkecqxKt4KkMQb729m-89" value="&lt;font style=&quot;font-size: 14px; font-weight: normal;&quot;&gt;SCL&lt;/font&gt;" style="text;strokeColor=none;fillColor=none;html=1;fontSize=24;fontStyle=1;verticalAlign=middle;align=center;" vertex="1" parent="s9KkecqxKt4KkMQb729m-42">
          <mxGeometry x="170" y="5" width="30" height="15" as="geometry" />
        </mxCell>
        <mxCell id="s9KkecqxKt4KkMQb729m-90" value="&lt;font style=&quot;font-size: 14px; font-weight: normal;&quot;&gt;GND&lt;/font&gt;" style="text;strokeColor=none;fillColor=none;html=1;fontSize=24;fontStyle=1;verticalAlign=middle;align=left;" vertex="1" parent="s9KkecqxKt4KkMQb729m-42">
          <mxGeometry x="60" y="185" width="30" height="15" as="geometry" />
        </mxCell>
        <mxCell id="s9KkecqxKt4KkMQb729m-91" value="&lt;font style=&quot;font-size: 20px;&quot;&gt;&lt;font style=&quot;&quot;&gt;Arduino Uno R4 W&lt;/font&gt;IFI&lt;/font&gt;" style="text;strokeColor=none;fillColor=none;html=1;fontSize=24;fontStyle=1;verticalAlign=middle;align=center;" vertex="1" parent="s9KkecqxKt4KkMQb729m-92">
          <mxGeometry x="30" width="200" height="30" as="geometry" />
        </mxCell>
        <mxCell id="s9KkecqxKt4KkMQb729m-112" value="" style="group" vertex="1" connectable="0" parent="1">
          <mxGeometry x="780" y="50" width="260" height="165" as="geometry" />
        </mxCell>
        <mxCell id="s9KkecqxKt4KkMQb729m-93" value="" style="rounded=0;whiteSpace=wrap;html=1;" vertex="1" parent="s9KkecqxKt4KkMQb729m-112">
          <mxGeometry x="40" y="30" width="190" height="135" as="geometry" />
        </mxCell>
        <mxCell id="s9KkecqxKt4KkMQb729m-94" value="" style="line;strokeWidth=2;html=1;" vertex="1" parent="s9KkecqxKt4KkMQb729m-112">
          <mxGeometry y="142.5" width="60" height="10" as="geometry" />
        </mxCell>
        <mxCell id="s9KkecqxKt4KkMQb729m-95" value="" style="line;strokeWidth=2;html=1;" vertex="1" parent="s9KkecqxKt4KkMQb729m-112">
          <mxGeometry y="102.5" width="60" height="10" as="geometry" />
        </mxCell>
        <mxCell id="s9KkecqxKt4KkMQb729m-96" value="" style="line;strokeWidth=2;html=1;" vertex="1" parent="s9KkecqxKt4KkMQb729m-112">
          <mxGeometry y="122.5" width="60" height="10" as="geometry" />
        </mxCell>
        <mxCell id="s9KkecqxKt4KkMQb729m-97" value="" style="line;strokeWidth=2;html=1;" vertex="1" parent="s9KkecqxKt4KkMQb729m-112">
          <mxGeometry y="82.5" width="60" height="10" as="geometry" />
        </mxCell>
        <mxCell id="s9KkecqxKt4KkMQb729m-98" value="" style="line;strokeWidth=2;html=1;" vertex="1" parent="s9KkecqxKt4KkMQb729m-112">
          <mxGeometry y="62.5" width="60" height="10" as="geometry" />
        </mxCell>
        <mxCell id="s9KkecqxKt4KkMQb729m-99" value="" style="line;strokeWidth=2;html=1;" vertex="1" parent="s9KkecqxKt4KkMQb729m-112">
          <mxGeometry y="42.5" width="60" height="10" as="geometry" />
        </mxCell>
        <mxCell id="s9KkecqxKt4KkMQb729m-100" value="&lt;font style=&quot;font-size: 14px; font-weight: normal;&quot;&gt;SO&lt;/font&gt;" style="text;strokeColor=none;fillColor=none;html=1;fontSize=24;fontStyle=1;verticalAlign=middle;align=center;" vertex="1" parent="s9KkecqxKt4KkMQb729m-112">
          <mxGeometry x="60" y="137.5" width="20" height="15" as="geometry" />
        </mxCell>
        <mxCell id="s9KkecqxKt4KkMQb729m-101" value="&lt;font style=&quot;font-size: 14px; font-weight: normal;&quot;&gt;CS&lt;/font&gt;" style="text;strokeColor=none;fillColor=none;html=1;fontSize=24;fontStyle=1;verticalAlign=middle;align=center;" vertex="1" parent="s9KkecqxKt4KkMQb729m-112">
          <mxGeometry x="60" y="117.5" width="20" height="15" as="geometry" />
        </mxCell>
        <mxCell id="s9KkecqxKt4KkMQb729m-102" value="&lt;font style=&quot;font-size: 14px; font-weight: normal;&quot;&gt;CS&lt;/font&gt;" style="text;strokeColor=none;fillColor=none;html=1;fontSize=24;fontStyle=1;verticalAlign=middle;align=center;" vertex="1" parent="s9KkecqxKt4KkMQb729m-112">
          <mxGeometry x="60" y="97.5" width="20" height="15" as="geometry" />
        </mxCell>
        <mxCell id="s9KkecqxKt4KkMQb729m-103" value="&lt;span style=&quot;font-size: 14px; font-weight: 400;&quot;&gt;SCK&lt;/span&gt;" style="text;strokeColor=none;fillColor=none;html=1;fontSize=24;fontStyle=1;verticalAlign=middle;align=center;" vertex="1" parent="s9KkecqxKt4KkMQb729m-112">
          <mxGeometry x="60" y="77.5" width="30" height="15" as="geometry" />
        </mxCell>
        <mxCell id="s9KkecqxKt4KkMQb729m-104" value="&lt;font style=&quot;font-size: 14px; font-weight: normal;&quot;&gt;VCC&lt;/font&gt;" style="text;strokeColor=none;fillColor=none;html=1;fontSize=24;fontStyle=1;verticalAlign=middle;align=center;" vertex="1" parent="s9KkecqxKt4KkMQb729m-112">
          <mxGeometry x="60" y="57.5" width="30" height="15" as="geometry" />
        </mxCell>
        <mxCell id="s9KkecqxKt4KkMQb729m-105" value="&lt;span style=&quot;font-size: 14px; font-weight: 400;&quot;&gt;GND&lt;/span&gt;" style="text;strokeColor=none;fillColor=none;html=1;fontSize=24;fontStyle=1;verticalAlign=middle;align=center;" vertex="1" parent="s9KkecqxKt4KkMQb729m-112">
          <mxGeometry x="60" y="37.5" width="30" height="15" as="geometry" />
        </mxCell>
        <mxCell id="s9KkecqxKt4KkMQb729m-106" value="" style="line;strokeWidth=2;html=1;" vertex="1" parent="s9KkecqxKt4KkMQb729m-112">
          <mxGeometry x="200" y="82.5" width="60" height="10" as="geometry" />
        </mxCell>
        <mxCell id="s9KkecqxKt4KkMQb729m-107" value="" style="line;strokeWidth=2;html=1;" vertex="1" parent="s9KkecqxKt4KkMQb729m-112">
          <mxGeometry x="200" y="107.5" width="60" height="10" as="geometry" />
        </mxCell>
        <mxCell id="s9KkecqxKt4KkMQb729m-108" value="&lt;span style=&quot;font-size: 14px; font-weight: 400;&quot;&gt;+&lt;/span&gt;" style="text;strokeColor=none;fillColor=none;html=1;fontSize=24;fontStyle=1;verticalAlign=middle;align=center;" vertex="1" parent="s9KkecqxKt4KkMQb729m-112">
          <mxGeometry x="180" y="77.5" width="20" height="15" as="geometry" />
        </mxCell>
        <mxCell id="s9KkecqxKt4KkMQb729m-110" value="&lt;span style=&quot;font-size: 14px; font-weight: 400;&quot;&gt;-&lt;/span&gt;" style="text;strokeColor=none;fillColor=none;html=1;fontSize=24;fontStyle=1;verticalAlign=middle;align=center;" vertex="1" parent="s9KkecqxKt4KkMQb729m-112">
          <mxGeometry x="180" y="102.5" width="20" height="15" as="geometry" />
        </mxCell>
        <mxCell id="s9KkecqxKt4KkMQb729m-111" value="&lt;div style=&quot;&quot;&gt;&lt;span style=&quot;background-color: initial; font-size: 20px; text-wrap-mode: nowrap;&quot;&gt;&lt;b&gt;MAX6675&lt;/b&gt;&lt;/span&gt;&lt;/div&gt;" style="text;whiteSpace=wrap;html=1;align=center;" vertex="1" parent="s9KkecqxKt4KkMQb729m-112">
          <mxGeometry x="40" width="190" height="52.5" as="geometry" />
        </mxCell>
      </root>
    </mxGraphModel>
  </diagram>
</mxfile>
